<?xml version="1.0" encoding="UTF-8" standalone="no"?>
<!-- Created with Inkscape (http://www.inkscape.org/) -->

<svg
   xmlns:dc="http://purl.org/dc/elements/1.1/"
   xmlns:cc="http://creativecommons.org/ns#"
   xmlns:rdf="http://www.w3.org/1999/02/22-rdf-syntax-ns#"
   xmlns:svg="http://www.w3.org/2000/svg"
   xmlns="http://www.w3.org/2000/svg"
   xmlns:sodipodi="http://sodipodi.sourceforge.net/DTD/sodipodi-0.dtd"
   xmlns:inkscape="http://www.inkscape.org/namespaces/inkscape"
   width="100"
   height="100"
   viewBox="0 0 100 100"
   id="svg2"
   version="1.1"
   inkscape:version="0.91 r13725"
   sodipodi:docname="_all.svg">
  <defs
     id="defs4" />
  <sodipodi:namedview
     id="base"
     pagecolor="#ffffff"
     bordercolor="#666666"
     borderopacity="1.0"
     inkscape:pageopacity="0.0"
     inkscape:pageshadow="2"
     inkscape:zoom="0.50000003"
     inkscape:cx="784.18204"
     inkscape:cy="-89.354832"
     inkscape:document-units="px"
     inkscape:current-layer="layer1"
     showgrid="true"
     units="px"
     inkscape:object-paths="false"
     inkscape:snap-intersection-paths="false"
     inkscape:snap-smooth-nodes="false"
     inkscape:object-nodes="true"
     inkscape:snap-object-midpoints="true"
     inkscape:window-width="1920"
     inkscape:window-height="1018"
     inkscape:window-x="-8"
     inkscape:window-y="-8"
     inkscape:window-maximized="1"
     inkscape:snap-global="true"
     inkscape:snap-grids="true"
     inkscape:snap-others="false"
     inkscape:snap-nodes="true"
     inkscape:snap-to-guides="false">
    <inkscape:grid
       type="xygrid"
       id="grid4684"
       spacingx="5"
       spacingy="5"
       units="px"
       dotted="true" />
  </sodipodi:namedview>
  <metadata
     id="metadata7">
    <rdf:RDF>
      <cc:Work
         rdf:about="">
        <dc:format>image/svg+xml</dc:format>
        <dc:type
           rdf:resource="http://purl.org/dc/dcmitype/StillImage" />
        <dc:title></dc:title>
      </cc:Work>
    </rdf:RDF>
  </metadata>
  <g
     inkscape:label="Layer 1"
     inkscape:groupmode="layer"
     id="layer1"
     transform="translate(0,-952.36217)">
    <path
       style="color:#000000;font-style:normal;font-variant:normal;font-weight:normal;font-stretch:normal;font-size:medium;line-height:normal;font-family:sans-serif;text-indent:0;text-align:start;text-decoration:none;text-decoration-line:none;text-decoration-style:solid;text-decoration-color:#000000;letter-spacing:normal;word-spacing:normal;text-transform:none;direction:ltr;block-progression:tb;writing-mode:lr-tb;baseline-shift:baseline;text-anchor:start;white-space:normal;clip-rule:nonzero;display:inline;overflow:visible;visibility:visible;opacity:1;isolation:auto;mix-blend-mode:normal;color-interpolation:sRGB;color-interpolation-filters:linearRGB;solid-color:#000000;solid-opacity:1;fill:#333333;fill-opacity:1;fill-rule:nonzero;stroke:none;stroke-width:3.69111967;stroke-linecap:round;stroke-linejoin:round;stroke-miterlimit:4;stroke-dasharray:none;stroke-dashoffset:0;stroke-opacity:1;color-rendering:auto;image-rendering:auto;shape-rendering:auto;text-rendering:auto;enable-background:accumulate"
       d="m 25.32258,960.85726 0,6.50355 -5.9495,0 c -4.70384,0 -8.55768,3.85383 -8.55768,8.55769 l 0,59.3933 c 0,4.7038 3.85384,8.5553 8.55768,8.5553 l 61.25383,0 c 4.70385,0 8.55769,-3.8515 8.55769,-8.5553 l 0,-59.3933 c 0,-4.70386 -3.85384,-8.55769 -8.55769,-8.55769 l -5.6277,0 0,-6.14063 -6.55435,0 0,6.14063 -36.56795,0 0,-6.50355 -6.55435,0 z m -7.28746,22.28337 63.89589,0 0,49.59207 c 0,2.2032 -1.71375,3.9171 -3.91712,3.9171 l -56.06165,0 c -2.20335,0 -3.91712,-1.7139 -3.91712,-3.9171 l 0,-49.59207 z m 35.50578,20.97197 c -2.43698,0 -4.39861,1.9617 -4.39861,4.3986 l 0,16.6049 c 0,2.437 1.96162,4.3986 4.39861,4.3986 l 16.60485,0 c 2.437,0 4.3986,-1.9616 4.3986,-4.3986 l 0,-16.6049 c 0,-2.4369 -1.9616,-4.3986 -4.3986,-4.3986 l -16.60485,0 z"
       id="rect4687"
       inkscape:connector-curvature="0" />
  </g>
</svg>
