<?xml version="1.0" encoding="UTF-8" standalone="no"?>
<!-- Created with Inkscape (http://www.inkscape.org/) -->

<svg
   xmlns:dc="http://purl.org/dc/elements/1.1/"
   xmlns:cc="http://creativecommons.org/ns#"
   xmlns:rdf="http://www.w3.org/1999/02/22-rdf-syntax-ns#"
   xmlns:svg="http://www.w3.org/2000/svg"
   xmlns="http://www.w3.org/2000/svg"
   xmlns:sodipodi="http://sodipodi.sourceforge.net/DTD/sodipodi-0.dtd"
   xmlns:inkscape="http://www.inkscape.org/namespaces/inkscape"
   width="80"
   height="99.999985"
   viewBox="0 0 80 99.999985"
   id="svg2"
   version="1.1"
   inkscape:version="0.91 r13725"
   sodipodi:docname="_all.svg">
  <defs
     id="defs4" />
  <sodipodi:namedview
     id="base"
     pagecolor="#ffffff"
     bordercolor="#666666"
     borderopacity="1.0"
     inkscape:pageopacity="0.0"
     inkscape:pageshadow="2"
     inkscape:zoom="2.0000001"
     inkscape:cx="200.5738"
     inkscape:cy="147.26945"
     inkscape:document-units="px"
     inkscape:current-layer="layer1"
     showgrid="true"
     units="px"
     inkscape:object-paths="false"
     inkscape:snap-intersection-paths="false"
     inkscape:snap-smooth-nodes="false"
     inkscape:object-nodes="false"
     inkscape:snap-object-midpoints="true"
     inkscape:window-width="1920"
     inkscape:window-height="1018"
     inkscape:window-x="-8"
     inkscape:window-y="-8"
     inkscape:window-maximized="1"
     inkscape:snap-global="true"
     fit-margin-top="0"
     fit-margin-left="0"
     fit-margin-right="0"
     fit-margin-bottom="0">
    <inkscape:grid
       type="xygrid"
       id="grid4684"
       spacingx="5"
       spacingy="5"
       units="px"
       dotted="true"
       originx="-10"
       originy="-2.6416016e-006" />
  </sodipodi:namedview>
  <metadata
     id="metadata7">
    <rdf:RDF>
      <cc:Work
         rdf:about="">
        <dc:format>image/svg+xml</dc:format>
        <dc:type
           rdf:resource="http://purl.org/dc/dcmitype/StillImage" />
        <dc:title></dc:title>
      </cc:Work>
    </rdf:RDF>
  </metadata>
  <g
     inkscape:label="Layer 1"
     inkscape:groupmode="layer"
     id="layer1"
     transform="translate(-10,-952.36218)">
    <rect
       style="fill:#03a9f4;fill-opacity:1;stroke:none;stroke-width:8;stroke-linecap:round;stroke-linejoin:round;stroke-miterlimit:4;stroke-dasharray:none;stroke-opacity:1"
       id="rect4692-7-7-3"
       width="80"
       height="99.999985"
       x="10"
       y="952.36218"
       rx="0.114317"
       ry="0.103506" />
    <path
       style="fill:#ffffff;fill-opacity:1;stroke:none;stroke-width:1.5;stroke-linejoin:miter;stroke-miterlimit:4;stroke-dasharray:none;stroke-opacity:1"
       d="m 49.999995,987.98302 a 3.4540442,3.4540442 0 0 0 -3.45358,3.45501 3.4540442,3.4540442 0 0 0 3.45358,3.45358 3.4540442,3.4540442 0 0 0 3.45359,-3.45358 3.4540442,3.4540442 0 0 0 -3.45359,-3.45501 z m 0,10.99811 a 3.4540442,3.4540442 0 0 0 -3.45358,3.45357 3.4540442,3.4540442 0 0 0 3.45358,3.455 3.4540442,3.4540442 0 0 0 3.45359,-3.455 3.4540442,3.4540442 0 0 0 -3.45359,-3.45357 z m 0,10.85167 a 3.4540442,3.4540442 0 0 0 -3.45358,3.4535 3.4540442,3.4540442 0 0 0 3.45358,3.455 3.4540442,3.4540442 0 0 0 3.45359,-3.455 3.4540442,3.4540442 0 0 0 -3.45359,-3.4535 z"
       id="path4684-9"
       inkscape:connector-curvature="0" />
  </g>
</svg>
