<?xml version="1.0" encoding="UTF-8" standalone="no"?>
<!-- Created with Inkscape (http://www.inkscape.org/) -->

<svg
   xmlns:dc="http://purl.org/dc/elements/1.1/"
   xmlns:cc="http://creativecommons.org/ns#"
   xmlns:rdf="http://www.w3.org/1999/02/22-rdf-syntax-ns#"
   xmlns:svg="http://www.w3.org/2000/svg"
   xmlns="http://www.w3.org/2000/svg"
   xmlns:sodipodi="http://sodipodi.sourceforge.net/DTD/sodipodi-0.dtd"
   xmlns:inkscape="http://www.inkscape.org/namespaces/inkscape"
   width="100"
   height="100"
   viewBox="0 0 100 100"
   id="svg2"
   version="1.1"
   inkscape:version="0.91 r13725"
   sodipodi:docname="_all.svg">
  <defs
     id="defs4" />
  <sodipodi:namedview
     id="base"
     pagecolor="#ffffff"
     bordercolor="#666666"
     borderopacity="1.0"
     inkscape:pageopacity="0.0"
     inkscape:pageshadow="2"
     inkscape:zoom="0.35355341"
     inkscape:cx="1165.9706"
     inkscape:cy="-370.54862"
     inkscape:document-units="px"
     inkscape:current-layer="layer1"
     showgrid="true"
     units="px"
     inkscape:object-paths="false"
     inkscape:snap-intersection-paths="false"
     inkscape:snap-smooth-nodes="false"
     inkscape:object-nodes="true"
     inkscape:snap-object-midpoints="true"
     inkscape:window-width="1920"
     inkscape:window-height="1018"
     inkscape:window-x="-8"
     inkscape:window-y="-8"
     inkscape:window-maximized="1"
     inkscape:snap-global="true"
     inkscape:snap-grids="true"
     inkscape:snap-others="false"
     inkscape:snap-nodes="true"
     inkscape:snap-to-guides="false">
    <inkscape:grid
       type="xygrid"
       id="grid4684"
       spacingx="5"
       spacingy="5"
       units="px"
       dotted="true" />
  </sodipodi:namedview>
  <metadata
     id="metadata7">
    <rdf:RDF>
      <cc:Work
         rdf:about="">
        <dc:format>image/svg+xml</dc:format>
        <dc:type
           rdf:resource="http://purl.org/dc/dcmitype/StillImage" />
        <dc:title></dc:title>
      </cc:Work>
    </rdf:RDF>
  </metadata>
  <g
     inkscape:label="Layer 1"
     inkscape:groupmode="layer"
     id="layer1"
     transform="translate(0,-952.36217)">
    <g
       transform="matrix(0.83388489,0,0,0.83388489,8.2227,960.66789)"
       id="g6"
       style="fill:#03a9f4;fill-opacity:1">
      <g
         id="g8"
         style="fill:#03a9f4;fill-opacity:1">
        <path
           style="fill:#03a9f4;fill-opacity:1"
           d="m 299.30078,482.90039 c -1.4,0 -2.70117,0.5 -3.70117,1.5 l -7.19922,6.79883 c -0.2,0.2 -0.40117,0.30078 -0.70117,0.30078 l -2.29883,0 c -7.6,0 -13.80078,6.20078 -13.80078,13.80078 l 0,25 c 0,7.1 5.70078,12.79883 12.80078,12.79883 l 20.19922,0 1,0 20.20117,0 c 7.1,0 12.79883,-5.69883 12.79883,-12.79883 l 0,-25 c -0.1,-7.6 -6.29883,-13.80078 -13.79883,-13.80078 l -2.30078,0 c -0.2,0 -0.49922,-0.10078 -0.69922,-0.30078 l -7.20117,-6.79883 c -1,-0.9 -2.29922,-1.5 -3.69922,-1.5 l -5.30078,0 -1,0 z m 5.876,19.87258 c 8.25067,0 14.96446,6.71379 14.96446,14.96446 0,8.25068 -6.71379,14.96447 -14.96446,14.96447 -8.25068,0 -14.96447,-6.71379 -14.96447,-14.96447 0,-8.25067 6.71379,-14.96446 14.96447,-14.96446 z m -0.0584,3.13445 c -6.21975,0 -11.88057,5.66082 -11.88057,11.88057 0,6.21975 5.66082,11.88057 11.88057,11.88057 6.21975,0 11.88058,-5.66082 11.88058,-11.88057 0,-6.21975 -5.66083,-11.88057 -11.88058,-11.88057 z"
           transform="translate(-255.00001,-462.99993)"
           id="circle10"
           inkscape:connector-curvature="0"
           sodipodi:nodetypes="sccsssssccsscssccsccsssssssssss" />
      </g>
      <g
         id="g12"
         style="fill:#03a9f4;fill-opacity:1" />
    </g>
  </g>
</svg>
