<?xml version="1.0" encoding="UTF-8" standalone="no"?>
<!-- Created with Inkscape (http://www.inkscape.org/) -->

<svg
   xmlns:dc="http://purl.org/dc/elements/1.1/"
   xmlns:cc="http://creativecommons.org/ns#"
   xmlns:rdf="http://www.w3.org/1999/02/22-rdf-syntax-ns#"
   xmlns:svg="http://www.w3.org/2000/svg"
   xmlns="http://www.w3.org/2000/svg"
   xmlns:sodipodi="http://sodipodi.sourceforge.net/DTD/sodipodi-0.dtd"
   xmlns:inkscape="http://www.inkscape.org/namespaces/inkscape"
   width="100"
   height="100"
   viewBox="0 0 100 100"
   id="svg2"
   version="1.1"
   inkscape:version="0.92.4 (unknown)"
   sodipodi:docname="unbound.svg">
  <defs
     id="defs4" />
  <sodipodi:namedview
     id="base"
     pagecolor="#ffffff"
     bordercolor="#666666"
     borderopacity="1.0"
     inkscape:pageopacity="0.0"
     inkscape:pageshadow="2"
     inkscape:zoom="2.8284271"
     inkscape:cx="86.890406"
     inkscape:cy="33.512575"
     inkscape:document-units="px"
     inkscape:current-layer="layer1"
     showgrid="true"
     units="px"
     inkscape:object-paths="false"
     inkscape:snap-intersection-paths="false"
     inkscape:snap-smooth-nodes="false"
     inkscape:object-nodes="true"
     inkscape:snap-object-midpoints="true"
     inkscape:window-width="1920"
     inkscape:window-height="995"
     inkscape:window-x="0"
     inkscape:window-y="0"
     inkscape:window-maximized="1"
     inkscape:snap-global="true"
     inkscape:snap-grids="false"
     inkscape:snap-others="false"
     inkscape:snap-nodes="true"
     inkscape:snap-to-guides="false"
     inkscape:snap-page="true"
     inkscape:snap-bbox="true"
     inkscape:bbox-nodes="true">
    <inkscape:grid
       type="xygrid"
       id="grid4684"
       spacingx="5"
       spacingy="5"
       units="px"
       dotted="true" />
  </sodipodi:namedview>
  <metadata
     id="metadata7">
    <rdf:RDF>
      <cc:Work
         rdf:about="">
        <dc:format>image/svg+xml</dc:format>
        <dc:type
           rdf:resource="http://purl.org/dc/dcmitype/StillImage" />
        <dc:title />
      </cc:Work>
    </rdf:RDF>
  </metadata>
  <g
     inkscape:label="Layer 1"
     inkscape:groupmode="layer"
     id="layer1"
     transform="translate(0,-952.36217)">
    <path
       style="fill:#ffffff;stroke-width:1.32324862"
       d="M 29.070408,968.73046 H 71.08355 v 69.47064 H 29.070408 Z"
       id="rect9"
       inkscape:connector-curvature="0" />
    <path
       inkscape:connector-curvature="0"
       style="fill:#ff0000;stroke-width:1.11111116"
       d="M 49.999999,952.36217 C 22.444443,952.36217 0,974.80662 0,1002.3622 c 0,27.5557 22.444443,50 49.999999,50 27.555557,0 50.000001,-22.4443 50.000001,-50 0,-27.55558 -22.444444,-50.00003 -50.000001,-50.00003 z m 0,80.00003 c -2.777777,0 -5,-2.2222 -5,-5 0,-2.7777 2.222223,-5 5,-5 2.777778,0 5,2.2223 5,5 0,2.7778 -2.222222,5 -5,5 z m 7.555557,-50.00003 -2.555557,30.00003 c -0.222222,2.7778 -2.666666,4.7778 -5.444444,4.5556 -2.444444,-0.2222 -4.333334,-2.2222 -4.555556,-4.5556 l -2.555555,-30.00003 c -0.333334,-4.11112 2.777777,-7.77778 6.888889,-8.11112 4.11111,-0.33332 7.777778,2.77778 8.111112,6.88889 0.111112,0.33334 0.111112,0.77778 0.111111,1.22223 z"
       id="path2" />
  </g>
</svg>
