<?xml version="1.0" encoding="UTF-8" standalone="no"?>
<svg
   xmlns:dc="http://purl.org/dc/elements/1.1/"
   xmlns:cc="http://creativecommons.org/ns#"
   xmlns:rdf="http://www.w3.org/1999/02/22-rdf-syntax-ns#"
   xmlns:svg="http://www.w3.org/2000/svg"
   xmlns="http://www.w3.org/2000/svg"
   xmlns:sodipodi="http://sodipodi.sourceforge.net/DTD/sodipodi-0.dtd"
   xmlns:inkscape="http://www.inkscape.org/namespaces/inkscape"
   version="1.0"
   x="0px"
   y="0px"
   viewBox="0 0 89.943 90.000373"
   enable-background="new 0 0 100 100"
   xml:space="preserve"
   id="svg2"
   inkscape:version="0.48.5 r10040"
   width="100%"
   height="100%"
   sodipodi:docname="noun_130872_cc.svg"
   inkscape:export-filename="C:\Users\Anna\Dropbox\Nextgis\ngf.png"
   inkscape:export-xdpi="246"
   inkscape:export-ydpi="246"><metadata
     id="metadata18"><rdf:RDF><cc:Work
         rdf:about=""><dc:format>image/svg+xml</dc:format><dc:type
           rdf:resource="http://purl.org/dc/dcmitype/StillImage" /><dc:title></dc:title></cc:Work></rdf:RDF></metadata><defs
     id="defs16" /><sodipodi:namedview
     pagecolor="#ffffff"
     bordercolor="#666666"
     borderopacity="1"
     objecttolerance="10"
     gridtolerance="10"
     guidetolerance="10"
     inkscape:pageopacity="0"
     inkscape:pageshadow="2"
     inkscape:window-width="1366"
     inkscape:window-height="705"
     id="namedview14"
     showgrid="false"
     fit-margin-top="0"
     fit-margin-left="0"
     fit-margin-right="0"
     fit-margin-bottom="0"
     inkscape:zoom="1.888"
     inkscape:cx="-66.04545"
     inkscape:cy="33.347644"
     inkscape:window-x="-4"
     inkscape:window-y="-4"
     inkscape:window-maximized="1"
     inkscape:current-layer="svg2" /><g
     id="g3770"><path
       id="path3"
       d="m 89.943,68.472 c 0,2.761 -1.754,5.881 -5,7.117 -3.246,1.236 -31.5,12.39 -35.333,13.528 -3.833,1.138 -5.343,1.217 -8.501,0 C 37.951,87.9 7.644,76.954 5,75.588 2.356,74.222 0,71.233 0,68.471 V 5 C 0,2.239 2.239,0 5,0 h 79.943 c 2.761,0 5,2.239 5,5 v 63.472 z"
       inkscape:connector-curvature="0"
       style="fill:#31b7da" /><g
       style="fill:#ffffff;fill-opacity:1"
       transform="matrix(0.62600226,0,0,0.62600226,13.618813,7.0230186)"
       id="g4"><polygon
         style="fill:#ffffff;fill-opacity:1"
         id="polygon6"
         points="20.329294,52.828773 47.251984,76.443169 94.833984,34.991226 94.833984,11.314044 47.251984,52.76585 20.329294,29.15159 " /><polygon
         style="fill:#ffffff;fill-opacity:1"
         id="polygon8"
         points="82.048348,54.564789 73.523575,62.45686 73.523575,82.663124 13.856819,82.663124 13.856819,22.993597 72.262054,22.993597 82.048348,14.470624 5.3339844,14.470624 5.3339844,91.185959 82.048348,91.185959 82.048348,86.923988 " /></g></g></svg>