<?xml version="1.0" encoding="utf-8"?>
<svg id="svg249" width="48px" height="48px" viewBox="0 1.5160000324249268 48 48" xmlns="http://www.w3.org/2000/svg">
  <defs id="defs3">
    <radialGradient id="radialGradient6719" gradientUnits="userSpaceOnUse" gradientTransform="matrix(-2.774389,0,0,1.969706,112.7623,-872.8854)" cx="605.71429" cy="486.64789" r="117.14286">
      <stop style="stop-color:black;stop-opacity:1;" offset="0" id="stop5062"/>
      <stop style="stop-color:black;stop-opacity:0;" offset="1" id="stop5064"/>
    </radialGradient>
    <radialGradient id="radialGradient6717" gradientUnits="userSpaceOnUse" gradientTransform="matrix(2.774389,0,0,1.969706,-1891.633,-872.8854)" cx="605.71429" cy="486.64789" r="117.14286">
      <stop style="stop-color:black;stop-opacity:1;" offset="0" id="stop5062"/>
      <stop style="stop-color:black;stop-opacity:0;" offset="1" id="stop5064"/>
    </radialGradient>
    <linearGradient id="linearGradient6715" gradientUnits="userSpaceOnUse" gradientTransform="matrix(2.774389,0,0,1.969706,-1892.179,-872.8854)" x1="302.85715" y1="366.64789" x2="302.85715" y2="609.50507">
      <stop style="stop-color:black;stop-opacity:0;" offset="0" id="stop5050"/>
      <stop id="stop5056" offset="0.5" style="stop-color:black;stop-opacity:1;"/>
      <stop style="stop-color:black;stop-opacity:0;" offset="1" id="stop5052"/>
    </linearGradient>
    <radialGradient id="radialGradient15656" gradientUnits="userSpaceOnUse" gradientTransform="matrix(0.968273,0.000000,0.000000,1.032767,3.353553,0.646447)" cx="8.8244190" cy="3.7561285" r="37.751713">
      <stop id="stop270" offset="0" style="stop-color:#a3a3a3;stop-opacity:1.0000000;"/>
      <stop id="stop271" offset="1" style="stop-color:#4c4c4c;stop-opacity:1.0000000;"/>
    </radialGradient>
    <radialGradient id="radialGradient15658" gradientUnits="userSpaceOnUse" gradientTransform="scale(0.960493,1.041132)" cx="33.966679" cy="35.736916" r="86.708450">
      <stop id="stop260" offset="0" style="stop-color:#fafafa;stop-opacity:1.0000000;"/>
      <stop id="stop261" offset="1" style="stop-color:#bbbbbb;stop-opacity:1.0000000;"/>
    </radialGradient>
    <radialGradient id="radialGradient15668" gradientUnits="userSpaceOnUse" gradientTransform="matrix(0.968273,0.000000,0.000000,1.032767,3.353553,0.646447)" cx="8.1435566" cy="7.2678967" r="38.158695">
      <stop id="stop15664" offset="0" style="stop-color:#ffffff;stop-opacity:1.0000000;"/>
      <stop id="stop15666" offset="1" style="stop-color:#f8f8f8;stop-opacity:1.0000000;"/>
    </radialGradient>
    <radialGradient r="5.256" cy="114.5684" cx="20.8921" gradientTransform="matrix(0.229703,0.000000,0.000000,0.229703,4.613529,3.979808)" gradientUnits="userSpaceOnUse" id="radialGradient2283">
      <stop offset="0" style="stop-color:#F0F0F0" id="stop15566"/>
      <stop offset="1" style="stop-color:#9a9a9a;stop-opacity:1.0000000;" id="stop15568"/>
    </radialGradient>
    <radialGradient r="5.257" cy="64.5679" cx="20.8921" gradientTransform="matrix(0.229703,0.000000,0.000000,0.229703,4.613529,3.979808)" gradientUnits="userSpaceOnUse" id="radialGradient2285">
      <stop offset="0" style="stop-color:#F0F0F0" id="stop15573"/>
      <stop offset="1" style="stop-color:#9a9a9a;stop-opacity:1.0000000;" id="stop15575"/>
    </radialGradient>
  </defs>
  <g id="layer6">
    <g style="display:inline" transform="matrix(2.105461e-2,0,0,2.086758e-2,42.85172,41.1536)" id="g6707">
      <rect style="opacity:0.40206185;color:black;fill:url(#linearGradient6715);fill-opacity:1;fill-rule:nonzero;stroke:none;stroke-width:1;stroke-linecap:round;stroke-linejoin:miter;marker:none;marker-start:none;marker-mid:none;marker-end:none;stroke-miterlimit:4;stroke-dasharray:none;stroke-dashoffset:0;stroke-opacity:1;visibility:visible;display:inline;overflow:visible" id="rect6709" width="1339.6335" height="478.35718" x="-1559.2523" y="-150.69685"/>
      <path style="opacity:0.40206185;color:black;fill:url(#radialGradient6717);fill-opacity:1;fill-rule:nonzero;stroke:none;stroke-width:1;stroke-linecap:round;stroke-linejoin:miter;marker:none;marker-start:none;marker-mid:none;marker-end:none;stroke-miterlimit:4;stroke-dasharray:none;stroke-dashoffset:0;stroke-opacity:1;visibility:visible;display:inline;overflow:visible" d="M -219.61876,-150.68038 C -219.61876,-150.68038 -219.61876,327.65041 -219.61876,327.65041 C -76.744594,328.55086 125.78146,220.48075 125.78138,88.454235 C 125.78138,-43.572302 -33.655436,-150.68036 -219.61876,-150.68038 z " id="path6711"/>
      <path id="path6713" d="M -1559.2523,-150.68038 C -1559.2523,-150.68038 -1559.2523,327.65041 -1559.2523,327.65041 C -1702.1265,328.55086 -1904.6525,220.48075 -1904.6525,88.454235 C -1904.6525,-43.572302 -1745.2157,-150.68036 -1559.2523,-150.68038 z " style="opacity:0.40206185;color:black;fill:url(#radialGradient6719);fill-opacity:1;fill-rule:nonzero;stroke:none;stroke-width:1;stroke-linecap:round;stroke-linejoin:miter;marker:none;marker-start:none;marker-mid:none;marker-end:none;stroke-miterlimit:4;stroke-dasharray:none;stroke-dashoffset:0;stroke-opacity:1;visibility:visible;display:inline;overflow:visible"/>
    </g>
  </g>
  <g style="display:inline" id="layer1">
    <rect style="color:#000000;fill:url(#radialGradient15658);fill-opacity:1.0000000;fill-rule:nonzero;stroke:url(#radialGradient15656);stroke-width:1.0000000;stroke-linecap:round;stroke-linejoin:round;stroke-miterlimit:4.0000000;stroke-dashoffset:0.0000000;stroke-opacity:1.0000000;marker:none;marker-start:none;marker-mid:none;marker-end:none;visibility:visible;display:block;overflow:visible" id="rect15391" width="34.875000" height="40.920494" x="6.6035528" y="3.6464462" ry="1.1490486"/>
    <rect style="color:#000000;fill:none;fill-opacity:1.0000000;fill-rule:nonzero;stroke:url(#radialGradient15668);stroke-width:1.0000000;stroke-linecap:round;stroke-linejoin:round;stroke-miterlimit:4.0000000;stroke-dashoffset:0.0000000;stroke-opacity:1.0000000;marker:none;marker-start:none;marker-mid:none;marker-end:none;visibility:visible;display:block;overflow:visible" id="rect15660" width="32.775887" height="38.946384" x="7.6660538" y="4.5839462" ry="0.14904857" rx="0.14904857"/>
    <g transform="translate(0.646447,-3.798933e-2)" id="g2270">
      <g id="g1440" style="fill:#ffffff;fill-opacity:1.0000000;fill-rule:nonzero;stroke:#000000;stroke-miterlimit:4.0000000" transform="matrix(0.229703,0.000000,0.000000,0.229703,4.967081,4.244972)">
        <path style="stroke:none" d="M 23.428000,113.07000 C 23.428000,115.04300 21.828000,116.64200 19.855000,116.64200 C 17.881000,116.64200 16.282000,115.04200 16.282000,113.07000 C 16.282000,111.09600 17.882000,109.49700 19.855000,109.49700 C 21.828000,109.49700 23.428000,111.09700 23.428000,113.07000 z " id="path1448"/>
        <path style="stroke:none" d="M 23.428000,63.070000 C 23.428000,65.043000 21.828000,66.643000 19.855000,66.643000 C 17.881000,66.643000 16.282000,65.043000 16.282000,63.070000 C 16.282000,61.096000 17.882000,59.497000 19.855000,59.497000 C 21.828000,59.497000 23.428000,61.097000 23.428000,63.070000 z " id="path1456"/>
      </g>
      <path style="fill:url(#radialGradient2283);fill-rule:nonzero;stroke:none;stroke-miterlimit:4.0000000" d="M 9.9950109,29.952326 C 9.9950109,30.405530 9.6274861,30.772825 9.1742821,30.772825 C 8.7208483,30.772825 8.3535532,30.405301 8.3535532,29.952326 C 8.3535532,29.498892 8.7210780,29.131597 9.1742821,29.131597 C 9.6274861,29.131597 9.9950109,29.499122 9.9950109,29.952326 z " id="path15570"/>
      <path style="fill:url(#radialGradient2285);fill-rule:nonzero;stroke:none;stroke-miterlimit:4.0000000" d="M 9.9950109,18.467176 C 9.9950109,18.920380 9.6274861,19.287905 9.1742821,19.287905 C 8.7208483,19.287905 8.3535532,18.920380 8.3535532,18.467176 C 8.3535532,18.013742 8.7210780,17.646447 9.1742821,17.646447 C 9.6274861,17.646447 9.9950109,18.013972 9.9950109,18.467176 z " id="path15577"/>
    </g>
    <path style="fill:none;fill-opacity:0.75000000;fill-rule:evenodd;stroke:#000000;stroke-width:0.98855311;stroke-linecap:butt;stroke-linejoin:miter;stroke-miterlimit:4.0000000;stroke-opacity:0.017543854" d="M 11.505723,5.4942766 L 11.505723,43.400869" id="path15672"/>
    <path style="fill:none;fill-opacity:0.75000000;fill-rule:evenodd;stroke:#ffffff;stroke-width:1.0000000;stroke-linecap:butt;stroke-linejoin:miter;stroke-miterlimit:4.0000000;stroke-opacity:0.20467831" d="M 12.500000,5.0205154 L 12.500000,43.038228" id="path15674"/>
  </g>
  <g id="g3770" transform="matrix(0.242185, 0, 0, 0.242185, 22.370918, 26.308338)">
    <path id="path3" d="m 89.943,68.472 c 0,2.761 -1.754,5.881 -5,7.117 -3.246,1.236 -31.5,12.39 -35.333,13.528 -3.833,1.138 -5.343,1.217 -8.501,0 C 37.951,87.9 7.644,76.954 5,75.588 2.356,74.222 0,71.233 0,68.471 V 5 C 0,2.239 2.239,0 5,0 h 79.943 c 2.761,0 5,2.239 5,5 v 63.472 z" style="fill:#31b7da"/>
    <g style="fill:#ffffff;fill-opacity:1" transform="matrix(0.62600226,0,0,0.62600226,13.618813,7.0230186)" id="g4">
      <polygon style="fill:#ffffff;fill-opacity:1" id="polygon6" points="20.329294,52.828773 47.251984,76.443169 94.833984,34.991226 94.833984,11.314044 47.251984,52.76585 20.329294,29.15159 "/>
      <polygon style="fill:#ffffff;fill-opacity:1" id="polygon8" points="82.048348,54.564789 73.523575,62.45686 73.523575,82.663124 13.856819,82.663124 13.856819,22.993597 72.262054,22.993597 82.048348,14.470624 5.3339844,14.470624 5.3339844,91.185959 82.048348,91.185959 82.048348,86.923988 "/>
    </g>
  </g>
</svg>