<?xml version="1.0" encoding="UTF-8" standalone="no"?>
<!-- Created with Inkscape (http://www.inkscape.org/) -->

<svg
   xmlns:dc="http://purl.org/dc/elements/1.1/"
   xmlns:cc="http://creativecommons.org/ns#"
   xmlns:rdf="http://www.w3.org/1999/02/22-rdf-syntax-ns#"
   xmlns:svg="http://www.w3.org/2000/svg"
   xmlns="http://www.w3.org/2000/svg"
   xmlns:sodipodi="http://sodipodi.sourceforge.net/DTD/sodipodi-0.dtd"
   xmlns:inkscape="http://www.inkscape.org/namespaces/inkscape"
   width="100"
   height="100"
   viewBox="0 0 100 100"
   id="svg2"
   version="1.1"
   inkscape:version="0.91 r13725"
   sodipodi:docname="_all.svg">
  <defs
     id="defs4" />
  <sodipodi:namedview
     id="base"
     pagecolor="#ffffff"
     bordercolor="#666666"
     borderopacity="1.0"
     inkscape:pageopacity="0.0"
     inkscape:pageshadow="2"
     inkscape:zoom="1"
     inkscape:cx="423.37807"
     inkscape:cy="164.52045"
     inkscape:document-units="px"
     inkscape:current-layer="layer1"
     showgrid="true"
     units="px"
     inkscape:object-paths="false"
     inkscape:snap-intersection-paths="false"
     inkscape:snap-smooth-nodes="false"
     inkscape:object-nodes="false"
     inkscape:snap-object-midpoints="true"
     inkscape:window-width="1920"
     inkscape:window-height="1018"
     inkscape:window-x="-8"
     inkscape:window-y="-8"
     inkscape:window-maximized="1"
     inkscape:snap-global="true"
     inkscape:snap-grids="true">
    <inkscape:grid
       type="xygrid"
       id="grid4684"
       spacingx="5"
       spacingy="5"
       units="px"
       dotted="true" />
  </sodipodi:namedview>
  <metadata
     id="metadata7">
    <rdf:RDF>
      <cc:Work
         rdf:about="">
        <dc:format>image/svg+xml</dc:format>
        <dc:type
           rdf:resource="http://purl.org/dc/dcmitype/StillImage" />
        <dc:title></dc:title>
      </cc:Work>
    </rdf:RDF>
  </metadata>
  <g
     inkscape:label="Layer 1"
     inkscape:groupmode="layer"
     id="layer1"
     transform="translate(0,-952.36217)">
    <path
       style="fill:#000000;fill-opacity:1;stroke:none;stroke-width:10;stroke-linejoin:miter;stroke-miterlimit:4;stroke-dasharray:none;stroke-opacity:1"
       d="m 9.8816338,981.73535 c -2.35,0 -4.24172,1.8923 -4.24172,4.2423 l 0,32.76915 c 0,2.3499 1.89172,4.2422 4.24172,4.2422 l 80.2361902,0 c 2.34999,0 4.24229,-1.8923 4.24229,-4.2422 l 0,-32.76915 c 0,-3.0074 -1.8923,-4.2423 -4.24229,-4.2423 l -80.2361902,0 z m 0.4193702,3.3706 79.32581,0 c 0.59267,0 1.06982,0.4772 1.06982,1.0698 l 0,32.44165 c 0,0.5926 -0.47715,1.0698 -1.06982,1.0698 l -79.32581,0 c -0.5926702,0 -1.0698102,-0.4772 -1.0698102,-1.0698 l 0,-32.44165 c 0,-0.5926 0.47714,-1.0698 1.0698102,-1.0698 z"
       id="rect4247-6"
       inkscape:connector-curvature="0" />
    <g
       transform="matrix(0.29575903,0,0,0.29575903,5.6399138,700.06564)"
       style="font-style:normal;font-weight:normal;font-size:110.19272614px;line-height:125%;font-family:sans-serif;letter-spacing:0px;word-spacing:0px;fill:#000000;fill-opacity:1;stroke:none;stroke-width:1px;stroke-linecap:butt;stroke-linejoin:miter;stroke-opacity:1"
       id="flowRoot4269">
      <path
         d="m 56.520641,982.45114 0,17.11 20.392111,0 0,7.69416 -20.392111,0 0,32.7134 q 0,7.3713 1.990786,9.4697 2.044592,2.0984 8.232172,2.0984 l 10.169153,0 0,8.286 -10.169153,0 q -11.460474,0 -15.818683,-4.2506 -4.358208,-4.3044 -4.358208,-15.6035 l 0,-32.7134 -7.263681,0 0,-7.69416 7.263681,0 0,-17.11 9.953933,0 z"
         id="path4216"
         inkscape:connector-curvature="0" />
    </g>
  </g>
</svg>
