<?xml version="1.0" encoding="UTF-8" standalone="no"?>
<!-- Created with Inkscape (http://www.inkscape.org/) -->

<svg
   xmlns:dc="http://purl.org/dc/elements/1.1/"
   xmlns:cc="http://creativecommons.org/ns#"
   xmlns:rdf="http://www.w3.org/1999/02/22-rdf-syntax-ns#"
   xmlns:svg="http://www.w3.org/2000/svg"
   xmlns="http://www.w3.org/2000/svg"
   xmlns:sodipodi="http://sodipodi.sourceforge.net/DTD/sodipodi-0.dtd"
   xmlns:inkscape="http://www.inkscape.org/namespaces/inkscape"
   width="100"
   height="100"
   viewBox="0 0 100 100"
   id="svg2"
   version="1.1"
   inkscape:version="0.91 r13725"
   sodipodi:docname="_all.svg">
  <defs
     id="defs4" />
  <sodipodi:namedview
     id="base"
     pagecolor="#ffffff"
     bordercolor="#666666"
     borderopacity="1.0"
     inkscape:pageopacity="0.0"
     inkscape:pageshadow="2"
     inkscape:zoom="0.5"
     inkscape:cx="751.7363"
     inkscape:cy="178.02388"
     inkscape:document-units="px"
     inkscape:current-layer="layer1"
     showgrid="true"
     units="px"
     inkscape:object-paths="false"
     inkscape:snap-intersection-paths="false"
     inkscape:snap-smooth-nodes="false"
     inkscape:object-nodes="true"
     inkscape:snap-object-midpoints="false"
     inkscape:window-width="1920"
     inkscape:window-height="1018"
     inkscape:window-x="-8"
     inkscape:window-y="-8"
     inkscape:window-maximized="1"
     inkscape:snap-global="true"
     inkscape:snap-grids="true">
    <inkscape:grid
       type="xygrid"
       id="grid4684"
       spacingx="5"
       spacingy="5"
       units="px"
       dotted="true" />
  </sodipodi:namedview>
  <metadata
     id="metadata7">
    <rdf:RDF>
      <cc:Work
         rdf:about="">
        <dc:format>image/svg+xml</dc:format>
        <dc:type
           rdf:resource="http://purl.org/dc/dcmitype/StillImage" />
        <dc:title></dc:title>
      </cc:Work>
    </rdf:RDF>
  </metadata>
  <g
     inkscape:label="Layer 1"
     inkscape:groupmode="layer"
     id="layer1"
     transform="translate(0,-952.36217)">
    <path
       style="fill:#000000;fill-opacity:1;stroke:none;stroke-width:10;stroke-linejoin:miter;stroke-miterlimit:4;stroke-dasharray:none;stroke-opacity:1"
       d="m 9.44807,981.83189 c -2.35,0 -4.24024,1.8922 -4.24024,4.2422 l 0,7.5605 3.58985,0 0,-7.3613 c 0,-0.5926 0.47764,-1.0703 1.07031,-1.0703 l 6.625,0 0,-3.3711 -7.04492,0 z m 21.16992,0 0,3.3711 11.70898,0 0,-3.3711 -11.70898,0 z m 25.83398,0 0,3.3711 11.95704,0 0,-3.3711 -11.95704,0 z m 26.08204,0 0,3.3711 6.66015,0 c 0.59267,0 1.07031,0.4777 1.07031,1.0703 l 0,7.3613 3.66211,0 0,-7.5605 c 0,-3.0074 -1.89219,-4.2422 -4.24218,-4.2422 l -7.15039,0 z m -77.32618,28.36911 0,8.6426 c 0,2.3499 1.89024,4.2422 4.24024,4.2422 l 7.04492,0 0,-3.3008 -6.625,0 c -0.59267,0 -1.07031,-0.4777 -1.07031,-1.0703 l 0,-8.5137 -3.58985,0 z m 85.05664,0 0,8.5137 c 0,0.5926 -0.47764,1.0703 -1.07031,1.0703 l -6.66015,0 0,3.3008 7.15039,0 c 2.34999,0 4.24218,-1.8923 4.24218,-4.2422 l 0,-8.6426 -3.66211,0 z m -59.64648,9.584 0,3.3008 11.70898,0 0,-3.3008 -11.70898,0 z m 25.83398,0 0,3.3008 11.95704,0 0,-3.3008 -11.95704,0 z"
       id="rect4247-6-8-9"
       inkscape:connector-curvature="0" />
  </g>
</svg>
