<?xml version="1.0" encoding="UTF-8" standalone="no"?>
<svg
   xmlns:dc="http://purl.org/dc/elements/1.1/"
   xmlns:cc="http://creativecommons.org/ns#"
   xmlns:rdf="http://www.w3.org/1999/02/22-rdf-syntax-ns#"
   xmlns:svg="http://www.w3.org/2000/svg"
   xmlns="http://www.w3.org/2000/svg"
   xmlns:sodipodi="http://sodipodi.sourceforge.net/DTD/sodipodi-0.dtd"
   xmlns:inkscape="http://www.inkscape.org/namespaces/inkscape"
   viewBox="0 0 16 16"
   height="16px"
   width="16px"
   version="1.1"
   id="svg13"
   sodipodi:docname="lock.svg"
   inkscape:version="0.92.3 (2405546, 2018-03-11)">
  <metadata
     id="metadata17">
    <rdf:RDF>
      <cc:Work
         rdf:about="">
        <dc:format>image/svg+xml</dc:format>
        <dc:type
           rdf:resource="http://purl.org/dc/dcmitype/StillImage" />
        <dc:title></dc:title>
      </cc:Work>
    </rdf:RDF>
  </metadata>
  <sodipodi:namedview
     pagecolor="#ffffff"
     bordercolor="#666666"
     borderopacity="1"
     objecttolerance="10"
     gridtolerance="10"
     guidetolerance="10"
     inkscape:pageopacity="0"
     inkscape:pageshadow="2"
     inkscape:window-width="1854"
     inkscape:window-height="1043"
     id="namedview15"
     showgrid="false"
     inkscape:snap-page="false"
     inkscape:zoom="14.75"
     inkscape:cx="8"
     inkscape:cy="8"
     inkscape:window-x="0"
     inkscape:window-y="0"
     inkscape:window-maximized="1"
     inkscape:current-layer="svg13" />
  <defs
     id="defs5">
    <linearGradient
       id="linearGradient37621"
       gradientUnits="userSpaceOnUse"
       gradientTransform="matrix(0.312798, 0, 0, 0.312798, 0.522637, 0.894594)"
       x1="21.993773"
       y1="33.955299"
       x2="20.917078"
       y2="15.814602">
      <stop
         style="stop-color:#fffeff;stop-opacity:0.33333334;"
         offset="0"
         id="stop3959-0-2-1" />
      <stop
         style="stop-color:#fffeff;stop-opacity:0.21568628;"
         offset="1"
         id="stop3961-9-3-2" />
    </linearGradient>
  </defs>
  <path
     d="m 12.404609,6.6172528 h -0.268218 v -1.249233 c 0,-2.3074068 -1.831595,-4.2382072 -4.122467,-4.2804607 -0.062465,0 -0.1892223,0 -0.2498467,0 C 5.4732044,1.1298127 3.6397712,3.060613 3.6397712,5.3680198 v 1.249233 H 3.3752277 c -0.411512,0 -0.7477027,0.4225347 -0.7477027,0.9461104 v 6.2627008 c 0,0.523575 0.3361907,0.949784 0.7477027,0.949784 h 9.0293813 c 0.409675,0 0.745866,-0.426209 0.745866,-0.949784 V 7.5633632 c 0,-0.5235757 -0.336191,-0.9461104 -0.745866,-0.9461104 z m -2.024492,0 H 8.013924 7.7640773 5.39972 v -1.249233 c 0,-1.3759934 1.1169614,-2.5131629 2.4892804,-2.5131629 1.3741563,0 2.4911166,1.1371695 2.4911166,2.5131629 z"
     style="fill:#343434;stroke-width:1.8371073"
     id="path11"
     inkscape:connector-curvature="0" />
</svg>
